<svg width="160" height="48" viewBox="0 0 160 48" fill="none" xmlns="http://www.w3.org/2000/svg">
<path d="M42.653 24.572C42.653 14.1575 34.3841 5.71484 24.1839 5.71484C13.9837 5.71484 5.71484 14.1575 5.71484 24.572C5.71484 34.9865 13.9837 43.4291 24.1839 43.4291C34.3841 43.4291 42.653 34.9865 42.653 24.572Z" fill="#1A67FF"/>
<path d="M36.743 18.6856C36.6657 19.1472 36.5752 19.3711 36.4692 19.6301L36.4689 19.6307C36.3546 19.9115 36.2249 20.2302 36.1073 20.8625C36.0606 21.1156 36.0372 21.3012 36.0168 21.4649L36.0156 21.475L36.0143 21.4845C35.9817 21.7466 35.9598 21.9232 35.8555 22.2373C35.7708 22.4939 35.6294 22.922 35.2884 23.3832C35.0132 23.7564 34.5524 24.3809 33.9375 24.4559C33.8842 24.4595 33.7724 24.4652 33.7269 24.4415C31.9826 23.532 30.4838 22.8599 29.965 22.7091C29.3615 22.5346 29.4387 21.1913 29.507 20.0062C29.5377 19.4766 29.5667 18.9757 29.5423 18.5468C29.4576 17.0507 29.198 15.4131 27.922 14.6148C27.1601 14.1383 26.1773 13.9986 25.2383 13.9966C25.4123 13.9121 25.6064 13.7972 25.8179 13.6715L25.8243 13.6677C26.3773 13.3408 27.0636 12.935 27.7455 12.8636C27.9686 12.8411 28.1878 12.8147 28.4038 12.7903C29.7786 12.6314 30.9664 12.4948 32.2193 12.9328C32.7871 13.1317 33.9521 13.7952 34.2529 14.4114C34.4644 14.8462 34.8218 15.1854 35.5346 15.8619C35.9058 16.2144 36.1503 16.4194 36.3292 16.5694L36.3375 16.5762C36.5888 16.7872 36.6383 16.8313 36.7129 16.9874C36.9441 17.468 36.8599 17.9785 36.743 18.6856Z" fill="white"/>
<path d="M30.3608 24.824C30.4613 24.859 30.499 24.9836 30.4412 25.0745C30.2598 25.3602 30.0527 25.7447 29.8063 26.2112C29.6863 26.4394 29.5726 26.6548 29.4772 26.8229C29.1393 27.4155 29.1118 27.9143 29.0903 28.3146C29.0671 28.7333 29.0463 28.9256 28.8013 29.0925C28.599 29.231 28.3919 29.2771 26.9555 29.5004C26.7049 29.5401 26.5937 29.5896 26.4959 29.6333C26.4802 29.6402 26.4646 29.647 26.4483 29.6539C26.3487 29.6957 26.2498 29.6081 26.2553 29.4984C26.2655 29.2939 26.2719 29.0421 26.2728 28.7304V28.6668C26.2803 28.3794 26.2685 28.1462 26.2583 27.9582C26.2395 27.5838 26.2371 27.426 26.3349 27.2631C26.4548 27.0662 26.5485 27.006 26.7023 26.9065C26.9171 26.7687 27.2117 26.5789 27.6476 25.9671C27.8794 25.6433 27.9308 25.4675 27.9629 25.3157C27.9766 25.2528 27.9817 25.2292 28.1601 25.0911C28.3487 24.945 28.9232 24.5006 29.6588 24.6268C29.8534 24.6605 30.0991 24.7329 30.3608 24.824Z" fill="white"/>
<path d="M24.6816 31.5969C24.6503 31.6384 24.6138 31.6577 24.5609 31.6605C24.4108 31.6667 24.3053 31.6289 24.2355 31.543C24.0873 31.3589 24.1073 30.989 24.1418 30.7728L24.7492 30.6074C24.7968 30.9357 24.8192 31.4139 24.6816 31.5969Z" fill="white"/>
<path d="M24.7296 29.359C24.7194 29.4494 24.7083 29.5512 24.7088 29.6577C24.7095 29.6974 24.71 29.7373 24.7112 29.7762C24.7125 29.8776 24.7163 30.0385 24.7026 30.1117C24.5128 30.1822 24.3508 30.1822 24.1379 30.1785C24.1348 30.1157 24.1386 30.022 24.141 29.9587C24.1422 29.9098 24.1449 29.8613 24.1454 29.815C24.1461 29.7637 24.1454 29.7129 24.1454 29.6624C24.1447 29.5431 24.143 29.3476 24.1717 29.29C24.2289 29.2816 24.2873 29.2687 24.3501 29.254C24.4756 29.2264 24.6395 29.1911 24.7438 29.2071C24.7421 29.2486 24.7359 29.3102 24.7296 29.359Z" fill="white"/>
<path d="M23.6064 31.4057C23.5769 31.7236 23.4808 32.1167 23.1887 32.1764C23.0574 32.2039 22.9939 32.1636 22.9538 32.1251C22.7566 31.9386 22.7252 31.375 22.7527 30.9716C22.8841 30.9741 23.0562 30.944 23.2602 30.9036C23.3845 30.8784 23.5084 30.8503 23.6068 30.8271C23.6182 30.9765 23.6264 31.1895 23.6064 31.4057Z" fill="white"/>
<path d="M23.4694 30.2647L22.8105 30.5006C22.8439 30.2396 22.8885 29.8721 22.9042 29.6278C22.9156 29.456 22.9614 29.4032 22.9745 29.3919C22.9788 29.388 22.9877 29.3798 23.0121 29.3798C23.016 29.3798 23.0196 29.3806 23.024 29.3806L23.0377 29.3825L23.4542 29.3594C23.4718 29.5593 23.4718 29.998 23.4694 30.2647Z" fill="white"/>
<path d="M22.4047 30.0563C22.3675 30.1576 22.3236 30.4443 22.2961 30.6461L21.4707 30.6205C21.5173 30.3595 21.5817 30.094 21.6527 29.8823C21.7244 29.6721 21.8017 29.5143 21.8727 29.4699C21.9554 29.4192 22.1377 29.4078 22.2495 29.5052C22.431 29.6632 22.4812 29.8441 22.4047 30.0563Z" fill="white"/>
<path d="M22.0976 32.6354C22.0336 32.7247 21.9627 32.7701 21.8746 32.7796C21.7847 32.7898 21.715 32.7693 21.6592 32.7159C21.3999 32.4717 21.4212 31.6715 21.4306 31.2866C21.7729 31.207 22.1423 31.1392 22.3175 31.1289C22.3438 31.4511 22.3513 32.2826 22.0976 32.6354Z" fill="white"/>
<path d="M21.0202 30.5974C20.9799 30.7071 20.9411 30.8109 20.9116 30.9026C20.8155 30.9334 20.5222 30.9065 20.2227 30.839L20.4286 29.5129C20.767 29.4213 21.1595 29.3917 21.2544 29.4945C21.3794 29.63 21.1284 30.3083 21.0202 30.5974Z" fill="white"/>
<path d="M20.6454 32.8371C20.4853 33.0385 20.2453 33.1327 19.9105 33.1291C19.6788 33.125 19.596 33.0352 19.5545 32.968C19.3686 32.6673 19.5506 31.9587 19.7329 31.5059L20.8508 31.5744C20.8621 31.6541 20.8716 31.7506 20.8759 31.8561C20.8882 32.178 20.8486 32.5793 20.6454 32.8371Z" fill="white"/>
<path d="M29.8841 23.2129C28.8776 22.9218 28.9643 21.4193 29.048 19.9671C29.0777 19.4531 29.1057 18.9673 29.0828 18.57C29.0056 17.2107 28.7818 15.7303 27.7109 15.0602C26.5592 14.341 24.675 14.505 23.5126 14.656C23.5115 14.6561 23.5105 14.6568 23.5094 14.6569C23.509 14.6569 23.5085 14.657 23.5081 14.6571C23.0823 14.7889 22.684 14.8743 22.3751 14.8576C21.6893 14.8213 21.1556 14.5265 20.6855 14.2677C20.3188 14.0649 19.999 13.8896 19.6977 13.8896C19.6818 13.8896 19.6651 13.8896 19.6487 13.8904C18.7475 13.95 18.3333 14.1748 17.9569 14.5177C17.8623 14.6032 17.7469 14.8509 17.3691 15.9625C17.1784 16.5242 17.1431 16.8316 17.1077 17.1303C17.0758 17.4032 17.0434 17.6839 16.9013 18.1027C16.8023 18.3916 16.7294 18.6408 16.6586 18.8811C16.4723 19.5194 16.325 20.0223 15.8825 20.6202C15.8306 20.691 15.7662 20.795 15.6918 20.9135C15.5914 21.075 15.4673 21.2756 15.3034 21.5078C15.1878 21.6714 14.9222 22.2839 14.9367 22.4705C14.9584 22.7675 15.053 22.9519 15.1612 23.1671C15.2689 23.3793 15.3915 23.6196 15.414 23.9514L15.4176 24.0051C15.4572 24.5313 15.3835 24.7953 14.4032 25.6895C13.7764 26.2621 13.3311 26.8139 13.0307 27.2187C13.0042 27.2544 13.0387 27.3075 13.0825 27.304C13.0926 27.3025 13.1027 27.3017 13.1122 27.3017C13.131 27.3003 13.1498 27.2995 13.1684 27.2995C13.1872 27.2995 13.2061 27.3003 13.2246 27.301C13.2435 27.3017 13.2616 27.3032 13.2802 27.3062C13.5173 27.3338 13.7484 27.4361 13.9152 27.6126C13.9442 27.6433 13.9893 27.6516 14.0281 27.6357C14.1876 27.568 14.3631 27.579 14.5307 27.595C14.73 27.614 14.9313 27.6733 15.0687 27.7996C15.1209 27.8477 15.1927 27.8732 15.2616 27.8588C15.4177 27.8261 15.5803 27.8315 15.7314 27.8876C15.8435 27.9303 15.9396 27.995 16.0184 28.0762C16.0926 28.1527 16.2182 28.168 16.3099 28.1147C16.3465 28.0933 16.386 28.075 16.4288 28.0602C16.6417 27.9865 16.8771 28.0284 17.0838 28.1043C17.1856 28.1417 17.2923 28.175 17.3841 28.2376C17.5356 28.3406 17.6341 28.4865 17.7002 28.6508C17.751 28.777 17.92 28.8202 18.0285 28.7405C18.1588 28.6447 18.2663 28.6324 18.3748 28.6815C18.4197 28.7022 18.4547 28.7284 18.4815 28.76C18.5592 28.8515 18.6841 28.9427 18.7995 28.9148C19.1209 28.8372 19.5101 28.8887 19.7957 29.0448C19.9011 29.1015 20.0049 29.1877 20.0807 29.3182C20.0808 29.3183 20.0808 29.3184 20.0808 29.3185C20.0809 29.319 20.0816 29.3188 20.0817 29.3183L20.0903 29.2603C20.0942 29.2341 20.1125 29.2124 20.1373 29.2045L20.2066 29.1826C20.3698 29.1296 21.2014 28.8849 21.5249 29.2327C21.5389 29.247 21.5633 29.2484 21.5767 29.2334C21.6208 29.1842 21.6565 29.1571 21.6794 29.1437C21.8901 29.0133 22.2513 29.0051 22.4917 29.2152C22.5401 29.2566 22.6185 29.2416 22.655 29.1889C22.6774 29.1564 22.7029 29.1279 22.7314 29.1033C22.8159 29.0288 22.9229 28.9933 23.0412 29.0007L23.4981 28.9756C23.6131 28.9691 23.9701 28.9444 24.0827 28.92C24.0912 28.9182 24.0999 28.9166 24.1089 28.9152C24.1565 28.9078 24.2129 28.8952 24.2721 28.8827C24.4937 28.8334 24.745 28.7779 24.9514 28.8753C25.1498 28.9689 25.1247 29.1996 25.1008 29.403C25.0914 29.4855 25.0813 29.5718 25.082 29.6537C25.0835 29.6919 25.0842 29.7303 25.0849 29.7695C25.0878 29.9448 25.0914 30.1068 25.0575 30.2312C25.0574 30.2315 25.0574 30.2318 25.0574 30.232C25.0574 30.2323 25.0574 30.2325 25.0574 30.2327L25.0784 30.329C25.1002 30.4237 25.1993 30.4771 25.2804 30.426C25.4347 30.3286 25.5936 30.2057 25.6444 30.133C25.649 30.1263 25.6526 30.1189 25.6554 30.1112C25.6625 30.0916 25.6749 30.0511 25.6887 29.9694C25.7169 29.7961 25.7485 29.4439 25.7514 28.7286C25.7514 28.6909 25.7514 28.6638 25.7521 28.6512C25.7579 28.3858 25.7478 28.1728 25.7377 27.9847C25.7188 27.597 25.7036 27.2919 25.8922 26.9813C26.0756 26.6792 26.2538 26.5648 26.4249 26.4541C26.6241 26.3267 26.8488 26.182 27.2271 25.6521C27.4128 25.391 27.4357 25.2858 27.4538 25.2018C27.4949 25.0048 27.5586 24.8863 27.8451 24.6652C28.0783 24.4852 28.7881 23.9361 29.7455 24.1005C30.0595 24.1549 30.5684 24.3259 31.0707 24.528C31.071 24.5281 31.0712 24.5281 31.0715 24.5281C31.0718 24.5281 31.0717 24.5282 31.072 24.5282C31.0901 24.5336 31.1087 24.54 31.1258 24.5489C31.1336 24.553 31.1416 24.5572 31.1499 24.5605C31.5841 24.7376 32.0068 24.9346 32.2864 25.0949C32.3661 25.1406 32.4674 25.1134 32.5254 25.0414C32.6118 24.9344 32.7056 24.8691 32.8061 24.8076C32.8463 24.7825 32.8774 24.7635 32.9071 24.7376C33.0013 24.6559 33.0003 24.4846 32.8905 24.4269C31.5537 23.7258 30.3007 23.3339 29.8841 23.2129ZM20.2935 23.5292C19.9823 24.9203 17.8717 26.4492 16.9124 26.4492H16.8935C16.8783 26.4484 16.8617 26.447 16.8438 26.444C16.8257 26.441 16.8062 26.4366 16.7854 26.4307C16.7752 26.4278 16.7644 26.424 16.7535 26.4211C16.5794 26.3651 16.3383 26.2286 16.1558 26.0452C16.0302 25.9192 15.9313 25.7709 15.9001 25.6109C15.8944 25.5828 15.8886 25.555 15.8828 25.5269C15.8309 25.2902 15.7664 24.9947 15.9709 24.5111C15.9991 24.4463 16.0242 24.3857 16.0474 24.3305C16.0546 24.312 16.0626 24.2935 16.0699 24.276C16.0916 24.2237 16.1109 24.1757 16.1283 24.1323C16.1572 24.0586 16.1809 23.996 16.2004 23.9427C16.2084 23.922 16.2157 23.9021 16.2222 23.8838C16.2806 23.7165 16.2878 23.6539 16.2958 23.589C16.303 23.5383 16.3103 23.4762 16.3306 23.3877C16.3904 23.1266 16.4216 22.9056 16.4491 22.7086C16.4981 22.3547 16.5408 22.0488 16.7277 21.7681C16.7595 21.7203 16.7948 21.6766 16.8346 21.6384C16.8484 21.6251 16.8614 21.6125 16.8757 21.6C16.8902 21.5874 16.9046 21.5763 16.9189 21.5652C16.9643 21.5327 17.0128 21.5041 17.0654 21.4797C17.0835 21.4716 17.1016 21.4634 17.1195 21.4568C17.1564 21.4427 17.1953 21.4309 17.2358 21.4205C17.4077 21.3779 17.6105 21.3712 17.8437 21.4013C18.0986 21.422 18.3347 21.4713 18.544 21.5309C18.7188 21.5803 18.8747 21.6379 19.0068 21.6917C19.0206 21.6968 19.0336 21.702 19.0466 21.7079C19.072 21.7183 19.0964 21.7286 19.1203 21.7397C19.1565 21.7553 19.1895 21.77 19.2207 21.7838C19.2617 21.8031 19.2994 21.8201 19.3327 21.8354L19.3638 21.8501C19.5111 21.9187 19.6376 21.9938 19.7457 22.0727C19.7991 22.1126 19.849 22.1531 19.8937 22.1942C19.9089 22.2075 19.9234 22.2216 19.9369 22.2364C19.9514 22.2504 19.9652 22.2645 19.978 22.2785C20.3835 22.7145 20.3635 23.2188 20.2935 23.5292ZM21.2717 18.2567L21.2306 18.5089C21.136 19.0773 20.9187 19.8564 20.1173 20.057C19.3462 20.2495 19.1635 20.2907 18.6147 20.3158C18.6024 20.3173 18.5894 20.3173 18.5764 20.3173C18.1756 20.3173 17.4046 20.0592 17.268 19.4179C17.1806 19.005 17.359 18.7058 17.6527 18.2097C17.7018 18.1278 17.7546 18.0401 17.8109 17.942C18.1993 17.274 18.3523 16.7904 18.4752 16.4027C18.595 16.0239 18.6946 15.7106 18.951 15.4511C19.0102 15.3907 19.0773 15.3337 19.1553 15.2793C19.205 15.2445 19.2571 15.2137 19.3119 15.1849C19.3848 15.1479 19.4613 15.1156 19.5415 15.0898C19.7199 15.0316 19.9125 15.002 20.1054 15.002C20.4794 15.002 20.8528 15.1119 21.1191 15.3301C21.2388 15.4282 21.4093 15.6241 21.5082 16.2021C21.5592 16.4998 21.4725 17.047 21.2717 18.2567ZM26.9893 19.8741C26.7134 20.3577 26.5625 20.6239 26.3243 20.8236C25.8514 21.2202 25.2998 21.3205 24.8457 21.3205C24.5193 21.3205 24.2421 21.2689 24.079 21.2386C23.6097 21.1509 22.736 20.9887 22.4451 20.2848C22.3882 20.1455 22.3874 20.057 22.3874 19.9449C22.3874 19.8342 22.3874 19.6479 22.337 19.2047L22.3341 19.1751C22.3109 18.9745 22.2851 18.7475 22.3413 18.4564L22.3478 18.4216C22.5125 17.5666 22.5571 17.436 22.5941 17.3623C22.6793 17.1942 22.8813 17.1279 23.046 17.2141C23.2056 17.2989 23.272 17.4964 23.1969 17.6622C23.1802 17.7108 23.1334 17.8929 23.0061 18.5542L22.9996 18.589C22.9634 18.7756 22.9794 18.9171 23.0004 19.0962L23.0033 19.1266C23.0581 19.6079 23.0581 19.8261 23.0581 19.9441C23.0581 19.9649 23.0581 19.9878 23.0587 20.0014C23.059 20.0066 23.0615 20.0136 23.0631 20.0186C23.112 20.1368 23.2156 20.2295 23.3443 20.3029C23.455 20.366 23.5742 20.2553 23.5504 20.1281C23.4118 19.3867 23.426 18.5358 23.7014 18.0053C23.7937 17.8249 23.9646 17.5299 24.1268 17.2545C24.1273 17.2537 24.1278 17.253 24.1282 17.2522C24.1286 17.2514 24.1292 17.2507 24.1296 17.25C24.146 17.2223 24.1625 17.1948 24.1787 17.1671C24.1924 17.1434 24.2062 17.1207 24.219 17.0985C24.2904 16.9775 24.3576 16.8664 24.4111 16.7779C24.4184 16.7653 24.4256 16.7527 24.4329 16.7409C24.4379 16.732 24.443 16.7239 24.4481 16.7165C24.4597 16.6973 24.4698 16.6795 24.4792 16.6642C24.4835 16.6569 24.4879 16.6502 24.4915 16.6435C24.4937 16.6406 24.4951 16.6376 24.4966 16.6354C24.5017 16.6265 24.5067 16.6184 24.5111 16.6117C24.5198 16.5977 24.5263 16.5873 24.5299 16.5807C24.5302 16.5802 24.5304 16.5796 24.5307 16.5791C24.5315 16.5776 24.5331 16.5755 24.5339 16.574C24.5345 16.573 24.5346 16.5728 24.5352 16.5719C24.5751 16.5125 24.6147 16.4552 24.6537 16.4003C24.7415 16.2765 24.6388 16.1183 24.5024 16.1812C24.2682 16.289 24.1104 16.4119 24.0758 16.44C23.9307 16.558 23.7198 16.5336 23.6051 16.3855C23.4902 16.2373 23.5141 16.0214 23.6592 15.9034C23.8318 15.7648 24.7464 15.0836 25.8419 15.4035C26.6311 15.6327 27.0449 16.2484 27.2008 16.4799C27.3264 16.6679 27.7114 17.2385 27.6991 18.0354C27.6899 18.643 27.4415 19.0802 26.9893 19.8741Z" fill="white"/>
<path d="M19.8747 15.707C19.8187 15.8455 19.7516 16.0173 19.6794 16.2039C19.5111 16.636 19.3202 17.1255 19.2284 17.303C19.0701 17.6096 18.947 17.8031 18.8485 17.9591C18.736 18.138 18.6462 18.2798 18.5784 18.4772C18.4596 18.8227 18.4384 19.209 18.5156 19.629C18.3058 19.6053 17.9623 19.4577 17.9234 19.2718C17.8945 19.1333 17.9787 18.982 18.2269 18.5652C18.2766 18.4819 18.3299 18.3914 18.3884 18.2908C18.8149 17.5573 18.9875 17.0116 19.1145 16.6126C19.2514 16.1785 19.3161 15.9964 19.5341 15.8443C19.6316 15.775 19.7504 15.7309 19.8747 15.707Z" fill="white"/>
<path d="M19.4582 31.0904C19.2258 31.5753 18.9363 32.0227 18.756 32.2447C18.6066 31.8324 18.347 30.8878 18.4156 30.1279C18.4175 30.1059 18.42 30.0843 18.4231 30.0631C18.4506 29.8284 18.5117 29.613 18.6203 29.4405C18.692 29.3271 18.8905 29.2578 19.1159 29.2578C19.2822 29.2578 19.4633 29.295 19.619 29.3803H19.6202C19.7037 29.4259 19.8174 29.5181 19.8293 29.7863C19.8464 30.1483 19.6774 30.6351 19.4582 31.0904Z" fill="white"/>
<path d="M32.1992 25.6563C32.2173 25.6712 32.2286 25.6935 32.2183 25.7147C32.149 25.8572 32.0655 25.957 31.9673 26.0749C31.8487 26.219 31.713 26.3827 31.5866 26.6378C31.4069 26.9994 31.3494 27.3292 31.3192 28.1736C31.2836 29.1657 31.321 29.723 31.3494 30.1294C31.3763 30.5218 31.3929 30.7584 31.3243 31.1412C31.1861 31.9131 30.8627 32.4244 30.453 33.0715C29.9405 33.8807 29.4104 34.7168 28.5324 34.9836C28.4508 35.0093 28.4481 35.0093 28.2191 35.0101C28.0199 35.0101 27.6884 35.0106 27.061 35.0344C25.9141 35.0768 25.3388 35.0978 24.8466 35.1945C24.3302 35.2966 24.0608 35.4088 23.7996 35.5165C23.564 35.6137 23.3412 35.7064 22.9142 35.7959C22.6597 35.8485 22.2793 35.9057 20.9829 35.9075C19.6356 35.9101 18.8224 35.9108 17.7483 35.7859C16.2748 35.614 15.5351 35.5281 15.0439 35.2602C13.8851 34.6291 13.3958 33.494 12.5863 31.614C12.585 31.6106 12.5836 31.6073 12.5822 31.604C12.5722 31.5806 12.6001 31.558 12.6216 31.5711C12.66 31.5955 12.7 31.6155 12.7423 31.6299C12.7775 31.6427 12.8145 31.6525 12.8517 31.6589C12.9258 31.6717 13.003 31.6725 13.0815 31.6589C13.0952 31.6563 13.1078 31.6532 13.1199 31.6478C13.1222 31.6471 13.1245 31.6458 13.1267 31.6448C13.1404 31.6378 13.1575 31.6437 13.1633 31.6581C13.2147 31.8031 13.2966 31.9319 13.4339 32.0063C13.5715 32.0796 13.728 32.0853 13.881 32.084C14.0386 32.0814 14.1975 32.0725 14.3546 32.0532C14.4379 32.0442 14.5231 32.0858 14.555 32.1648C14.6988 32.5209 14.8771 32.7788 15.1448 32.8167C15.1592 32.8188 15.1781 32.8211 15.202 32.8211C15.2542 32.8211 15.3308 32.8078 15.4355 32.7446C15.5646 32.6669 15.7592 32.7159 15.8573 32.8316C15.915 32.8999 15.9783 32.9525 16.0341 32.9981C16.3098 33.2873 16.9799 33.4258 17.5427 33.4258C17.8497 33.4258 18.1249 33.3848 18.2869 33.3039C18.5187 33.1893 18.5187 33.013 18.5073 32.9417C18.4876 32.8139 18.4698 32.6872 18.4546 32.5615C18.4527 32.5466 18.4751 32.5407 18.481 32.5545C18.5148 32.6294 18.5558 32.7231 18.6657 32.741C18.6775 32.7423 18.6908 32.7452 18.706 32.7452C18.8629 32.7452 19.1068 32.7972 19.1489 32.9514C19.1703 33.0299 19.2007 33.1036 19.2419 33.1703C19.336 33.3224 19.5277 33.5038 19.9077 33.5102H19.9372C20.3736 33.5102 20.7104 33.3645 20.9375 33.0766C20.9523 33.0579 20.9663 33.0389 20.9798 33.0194C21.0615 32.9022 21.3039 32.897 21.4078 32.9945C21.5246 33.1048 21.6717 33.1618 21.8356 33.1618C21.8619 33.1618 21.8884 33.1605 21.916 33.1574C22.1112 33.1361 22.2802 33.0304 22.4065 32.8503C22.4891 32.7326 22.5494 32.5879 22.5934 32.4314C22.6064 32.3852 22.6683 32.3716 22.7029 32.4039C22.7865 32.4827 22.9202 32.5661 23.1131 32.5661C23.1601 32.5661 23.2111 32.5609 23.2652 32.5494C23.6441 32.4717 23.8329 32.1512 23.9223 31.7897C23.9253 31.7777 23.9424 31.7743 23.9503 31.7838C24.0464 31.9031 24.2236 32.0409 24.5318 32.0409C24.5475 32.0409 24.5639 32.0409 24.5801 32.0401C24.7433 32.0324 24.8809 31.9593 24.9801 31.8285C25.0968 31.6732 25.1451 31.4459 25.1582 31.2148C25.163 31.1297 25.2166 31.0549 25.2931 31.0209C25.6137 30.8782 25.992 30.5885 26.1048 30.3894C26.1056 30.3881 26.1064 30.3867 26.1072 30.3853C26.1418 30.3229 26.1963 30.2721 26.2652 30.2584C26.5033 30.2109 26.6099 30.1638 26.7071 30.1205C26.7887 30.0841 26.8542 30.0552 27.0374 30.0262C28.4945 29.7992 28.7789 29.7491 29.0941 29.5344C29.5658 29.2133 29.5897 28.7713 29.6129 28.3437C29.633 27.9821 29.6556 27.5717 29.9306 27.0901C30.0306 26.9144 30.1459 26.695 30.2686 26.4631C30.4782 26.0659 30.7694 25.5135 30.9828 25.2102C31.0313 25.1413 31.1202 25.1198 31.1966 25.1531C31.6904 25.3681 32.108 25.5814 32.1992 25.6563Z" fill="white"/>
<path d="M18.0454 30.0813C17.9877 30.5957 17.9524 31.2829 18.034 32.1782C18.0572 32.4307 18.0893 32.6931 18.1294 32.9584C18.0603 32.9969 17.8542 33.051 17.4875 33.0449C16.9605 33.0341 16.4475 32.8989 16.2935 32.7288L16.2696 32.7067C16.1414 32.6015 16.0574 32.5322 16.0453 32.3444C16.0414 32.2811 16.068 32.2182 16.125 32.1295C16.1564 32.0794 16.1979 32.022 16.2493 31.9506C16.3379 31.8293 16.4477 31.6779 16.5602 31.4832C16.89 30.9142 17.015 30.7384 17.1739 30.5166C17.1864 30.4986 17.1997 30.4806 17.2135 30.4621C17.3071 30.3313 17.4169 30.1747 17.5821 29.9177C17.7052 29.7266 17.8076 29.577 17.8918 29.4597C18.0326 29.2643 18.1248 29.1583 18.1839 29.1006C18.1752 29.1891 18.1557 29.3136 18.1368 29.4284C18.1088 29.6049 18.0736 29.8211 18.0454 30.0813Z" fill="white"/>
<path d="M17.8061 22.0851C17.8029 22.0896 17.7991 22.094 17.7959 22.0987C17.7274 22.1956 17.6489 22.3052 17.5555 22.5187C17.3042 23.0888 17.2994 23.4114 17.2955 23.671C17.2931 23.807 17.2916 23.9152 17.2552 24.0417C17.2301 24.125 17.1893 24.2206 17.1422 24.3308C16.994 24.6771 16.8006 25.1311 16.8873 25.7421C16.7673 25.6832 16.5838 25.5484 16.5583 25.4767C16.552 25.4434 16.545 25.4106 16.5375 25.3778C16.496 25.1873 16.4685 25.0631 16.5872 24.7841C16.8993 24.0491 16.9377 23.8748 16.9621 23.6747C16.9672 23.631 16.9723 23.597 16.9848 23.5418C17.0507 23.2519 17.0852 23.0037 17.1135 22.8043C17.1555 22.5017 17.1837 22.3015 17.2837 22.1509C17.3201 22.0952 17.4232 22.0664 17.5707 22.0664C17.6291 22.0664 17.695 22.0708 17.7667 22.0812L17.7836 22.0824C17.7909 22.0832 17.7986 22.0839 17.8061 22.0851Z" fill="white"/>
<path d="M17.3943 29.3353C17.3774 29.1591 17.3472 28.9826 17.2844 28.8165C17.2801 28.8081 17.2613 28.7657 17.2574 28.7576C17.2461 28.7364 17.233 28.7164 17.2209 28.6955C17.2202 28.6947 17.2197 28.6947 17.2197 28.6942C17.219 28.693 17.2185 28.693 17.2185 28.6923C17.2115 28.6846 17.2053 28.677 17.1985 28.6698C17.1884 28.6595 17.1772 28.6494 17.1664 28.6403C17.1645 28.6378 17.1625 28.6358 17.1608 28.6351C17.1558 28.6306 17.1483 28.6247 17.1401 28.6198C17.1268 28.6126 17.1143 28.605 17.1012 28.5981C17.0973 28.5956 17.0879 28.5917 17.0792 28.5885C17.0792 28.5885 17.0785 28.5885 17.0785 28.5878C17.0766 28.587 17.0746 28.5865 17.073 28.5858C17.071 28.5846 17.0698 28.5838 17.0686 28.5833C17.0667 28.5826 17.0655 28.5821 17.0643 28.5821C17.0631 28.5821 17.0631 28.5813 17.0631 28.5813C17.0592 28.5794 17.0568 28.5789 17.0549 28.5781C16.9544 28.5404 16.8526 28.4993 16.7459 28.4832C16.7451 28.4832 16.7435 28.4825 16.742 28.4825H16.7396C16.7278 28.4825 16.7031 28.48 16.7019 28.48C16.687 28.4793 16.6725 28.4793 16.658 28.48C16.651 28.48 16.6442 28.48 16.6379 28.4808H16.6324C16.63 28.4808 16.6268 28.4815 16.6237 28.4815C16.6225 28.4828 16.6206 28.4827 16.6199 28.4827C16.6191 28.4827 16.6187 28.4827 16.6187 28.4827C16.5948 28.4899 16.5696 28.4963 16.5457 28.5039C16.5356 28.5091 16.5245 28.5143 16.5144 28.5207C16.5057 28.5259 16.4967 28.5323 16.488 28.5367C16.4873 28.5375 16.4861 28.5387 16.4849 28.5387L16.483 28.5407C16.4716 28.5523 16.4598 28.5631 16.4485 28.5747C16.4446 28.5786 16.434 28.5919 16.4265 28.6016C16.4246 28.6028 16.4234 28.604 16.4234 28.6053C16.4226 28.606 16.4226 28.606 16.4222 28.6065C16.4214 28.6072 16.4214 28.6077 16.4202 28.6085C16.4195 28.6092 16.4195 28.6097 16.419 28.6097C16.4159 28.6154 16.4127 28.62 16.4115 28.6225C16.3712 28.6866 16.3304 28.7502 16.2884 28.8135C16.1916 28.9649 16.0924 29.1155 15.992 29.2651C15.9002 29.4004 15.8085 29.5357 15.7175 29.671C15.6666 29.7467 15.6163 29.8216 15.5661 29.8973C15.5574 29.9101 15.5492 29.9229 15.541 29.9357C15.6006 29.9473 15.6603 29.9594 15.7206 29.971C15.8556 29.9961 15.99 30.0203 16.1269 30.0395C16.4089 30.0787 16.6954 30.0967 16.981 30.0864C16.9948 30.0856 17.0085 30.0863 17.0213 30.0888C17.0899 29.9887 17.1707 29.8694 17.2738 29.7097C17.331 29.6205 17.3856 29.5379 17.437 29.4615C17.4138 29.425 17.3994 29.3814 17.3943 29.3353Z" fill="white"/>
<path d="M16.3911 30.5248C16.3667 30.7466 16.1236 31.3212 15.7442 31.8682C15.4265 32.3254 15.2336 32.4363 15.1952 32.4401C15.0419 32.4186 14.8905 32.0312 14.7706 31.6471C14.7223 31.4914 14.6788 31.336 14.6424 31.2058C14.5601 30.9135 14.5451 30.5216 14.5596 30.2754C14.8799 30.4568 15.4426 30.5056 16.2327 30.5088H16.2352C16.2873 30.5145 16.339 30.5204 16.3911 30.5248Z" fill="white"/>
<path d="M15.8274 28.6981V28.6993C15.8236 28.7045 15.8204 28.7101 15.8168 28.7153C15.6812 28.9191 15.5443 29.122 15.4074 29.3251C15.3364 29.4296 15.2662 29.5341 15.1964 29.6393C15.158 29.6965 15.1066 29.7594 15.062 29.8272C14.9495 29.8003 14.8372 29.7739 14.7259 29.7419C14.6349 29.715 14.5451 29.6862 14.457 29.6502C14.4394 29.6438 14.4225 29.6367 14.4061 29.6285C14.3916 29.5984 14.3708 29.5713 14.3457 29.5509C14.3464 29.5501 14.3464 29.5484 14.3469 29.5477C14.379 29.4809 14.4116 29.4136 14.4437 29.347C14.5045 29.2245 14.5656 29.1028 14.6334 28.9847C14.7542 28.7717 14.8997 28.5551 15.104 28.4171C15.1141 28.4094 15.1252 28.4023 15.1361 28.3954C15.2152 28.3446 15.2944 28.3089 15.3917 28.2965C15.4031 28.2953 15.4714 28.2958 15.5035 28.2985C15.509 28.2985 15.5136 28.2993 15.5168 28.2993H15.5175C15.5199 28.3 15.5245 28.3012 15.5312 28.3037C15.5551 28.3113 15.579 28.3165 15.6029 28.3249C15.6111 28.3288 15.6186 28.3325 15.6268 28.337C15.6476 28.3498 15.6688 28.3614 15.6884 28.3774C15.657 28.353 15.7318 28.4318 15.7318 28.4262C15.7922 28.5115 15.8105 28.5827 15.8274 28.6981Z" fill="white"/>
<path d="M14.7522 28.1187C14.5009 28.3297 14.3182 28.6106 14.1656 28.903C14.0802 29.0652 14.0029 29.2305 13.9225 29.3954C13.9143 29.4122 13.9061 29.4282 13.8967 29.4447C13.8207 29.428 13.7446 29.4055 13.6705 29.3814C13.5913 29.3557 13.5129 29.3262 13.4375 29.2904C13.403 29.2737 13.3685 29.2564 13.334 29.2379C13.4093 29.0922 13.4991 28.9525 13.5846 28.8167C13.7053 28.625 13.8359 28.4364 13.9778 28.2594C14.0312 28.1921 14.0876 28.1184 14.1625 28.0741C14.239 28.028 14.3315 28.0388 14.4193 28.044C14.5123 28.0499 14.6122 28.0524 14.7001 28.0884C14.7182 28.0962 14.7378 28.1086 14.7522 28.1187Z" fill="white"/>
<path d="M14.3547 31.5611C14.3422 31.5718 14.3315 31.5837 14.3221 31.597C14.3135 31.5996 14.3045 31.6016 14.299 31.6029C14.2386 31.6093 14.1771 31.6139 14.1162 31.6178C13.9994 31.6255 13.8806 31.6306 13.7625 31.6262C13.6967 31.6237 13.637 31.6134 13.61 31.5706C13.5666 31.5031 13.5535 31.3858 13.5378 31.2966C13.4606 30.8586 13.4504 30.4022 13.5052 29.959C13.7295 30.0411 13.96 30.1047 14.1966 30.1443C14.1457 30.5439 14.2323 31.1305 14.2833 31.3102C14.3069 31.3938 14.3308 31.4782 14.3547 31.5611Z" fill="white"/>
<path d="M13.6319 27.9733C13.4335 28.222 13.2527 28.487 13.0905 28.7613C13.0251 28.873 12.9509 28.9883 12.8964 29.1076C12.8179 29.0852 12.7469 29.0532 12.6716 29.0056C12.6139 28.9691 12.5579 28.9287 12.5034 28.8863C12.4896 28.8747 12.4519 28.8446 12.4285 28.8254C12.423 28.821 12.4179 28.8165 12.4121 28.8133C12.4302 28.7608 12.4635 28.7024 12.4819 28.6632C12.5234 28.5703 12.5698 28.4791 12.6183 28.3901C12.7105 28.2235 12.8136 28.0606 12.9304 27.9105C12.9739 27.8553 13.0152 27.784 13.0825 27.7636C13.1441 27.7456 13.2252 27.754 13.2747 27.7628C13.4217 27.7919 13.5366 27.8599 13.6319 27.9733Z" fill="white"/>
<path d="M12.1022 29.0578C12.1055 29.0449 12.1218 29.0432 12.1294 29.054C12.1813 29.1279 12.2526 29.1922 12.329 29.253C12.3632 29.2796 12.3972 29.3061 12.4318 29.3312C12.4372 29.335 12.4397 29.3419 12.4382 29.3484C12.3582 29.687 12.303 30.0458 12.3012 30.4C12.3011 30.4196 12.2722 30.4238 12.2677 30.4048C12.1687 29.9819 12.0401 29.3061 12.1022 29.0578Z" fill="white"/>
<path d="M13.0741 29.8094C13.0338 30.1121 13.0145 30.4155 13.0275 30.7207C13.0338 30.888 13.0514 31.0542 13.0734 31.2195C13.0734 31.2208 13.0734 31.222 13.0741 31.2228V31.2235C13.0389 31.2151 13.0019 31.2139 12.9643 31.2195C12.9718 31.2171 12.9524 31.2183 12.9443 31.2183H12.9418C12.9363 31.2176 12.9281 31.2171 12.9254 31.2163C12.8839 31.206 12.8803 31.2016 12.8474 31.1803C12.8047 31.1523 12.7596 31.1007 12.7294 31.0482C12.6497 30.9073 12.6321 30.736 12.6258 30.5762C12.614 30.2627 12.6403 29.9497 12.6975 29.6426C12.7465 29.663 12.7893 29.6818 12.8602 29.7131C12.9305 29.7444 13.0034 29.7752 13.0744 29.8087V29.8094H13.0741Z" fill="white"/>
<g opacity="0.8">
<path opacity="0.8" d="M20.9143 45.6469C19.5616 45.6469 18.2787 45.5597 17.2021 45.474L16.9053 45.4504L16.6089 45.4083C16.4793 45.3898 16.303 45.3703 16.133 45.3513C15.0973 45.2364 13.1713 45.0222 11.045 44.0026L10.7148 43.8438L10.4068 43.6675C6.32027 41.329 4.79091 37.8092 3.9674 35.9171C3.91498 35.7968 3.85141 35.6505 3.79156 35.5159C3.37588 34.6471 3.11295 33.8641 2.89004 33.1473L2.84051 32.9869L2.79922 32.8315C2.20605 30.6791 2.05622 28.8205 2.32782 26.9825C2.60026 25.1369 3.26979 23.4579 4.43302 21.7004L5.0361 20.6948C5.15861 20.4917 5.2451 20.2681 5.29161 20.0343C5.75146 17.7075 6.79497 16.0592 7.30765 15.2719C7.44877 14.319 7.68147 13.3826 8.00237 12.4763L8.05025 12.3389L8.10144 12.2049C8.10969 12.1813 8.12043 12.148 8.14024 12.0873C8.37057 11.3789 8.9105 9.72126 10.2933 7.98064L10.8126 7.33834L11.3418 6.85029C12.7011 5.58921 14.3203 4.6559 16.0802 4.11924C17.0626 3.82009 18.0755 3.63724 19.0989 3.5743L19.1979 3.56671L19.3469 3.55955C19.524 3.55112 19.7003 3.5469 19.8724 3.5469C20.511 3.54569 21.1484 3.60054 21.7778 3.71085C22.171 3.77843 22.575 3.73124 22.9431 3.57472C24.0343 3.11 25.1811 2.79564 26.3535 2.63993C26.4514 2.62559 26.5368 2.61463 26.6041 2.60578C26.789 2.58218 27.0829 2.54678 27.4379 2.51222C28.0571 2.45195 29.0065 2.37988 30.0356 2.37988C32.0455 2.37988 33.7753 2.64583 35.3242 3.19246L35.4559 3.23924L35.5845 3.28855C39.0024 4.60729 40.7423 6.44949 41.9934 8.07463L42.053 8.15218L42.2251 8.30854C43.3553 9.21138 44.3167 10.3154 45.0625 11.5673L45.2957 11.9592L45.4927 12.3701C47.1645 15.8543 46.6333 19.0713 46.433 20.2801L46.4222 20.3445C46.2782 21.2363 46.0493 22.1114 45.7382 22.9576C45.6239 23.7734 45.4357 24.5766 45.1761 25.3569C44.7324 26.744 44.0775 28.0512 43.236 29.2306C42.7513 29.9304 42.2042 30.5828 41.6014 31.1794C41.3883 31.3896 41.2501 31.6667 41.2089 31.9664C41.1828 32.1508 41.1531 32.3332 41.1192 32.5141C40.6292 35.198 39.4796 37.066 39.0102 37.8098L37.5915 39.8902C35.883 42.0635 33.856 43.4969 31.4027 44.2674L30.8083 44.4575L30.1664 44.5716C29.432 44.704 28.6876 44.7697 27.9419 44.7682C27.8391 44.7682 27.7355 44.7682 27.6208 44.7651H27.5878L27.461 44.773L27.3252 44.7782H27.3215C27.0373 44.7879 26.7554 44.8354 26.4831 44.9193C24.8985 45.4142 23.1062 45.6469 20.9143 45.6469V45.6469Z" stroke="url(#paint0_linear_0_81)" stroke-width="1.01688" stroke-miterlimit="10"/>
<path opacity="0.8" d="M20.9125 44.2175C19.6163 44.2175 18.373 44.1333 17.3283 44.0489L17.0806 44.0294L16.8329 43.9945C16.6785 43.9727 16.4899 43.9525 16.3079 43.9314C15.3019 43.8196 13.6202 43.633 11.7429 42.7341L11.4672 42.6017L11.2108 42.4547C7.60473 40.3894 6.27061 37.3232 5.47311 35.4909C5.41614 35.3603 5.34639 35.1997 5.28117 35.0537C4.90966 34.2758 4.66612 33.5572 4.46055 32.8958L4.41927 32.7626L4.38336 32.6328C3.85582 30.7186 3.7196 29.0851 3.95489 27.4911C4.19018 25.8971 4.78294 24.4242 5.81696 22.8715L6.58969 21.5831C6.72634 21.3548 6.82013 21.1026 6.86625 20.8392C7.25097 18.6506 8.26354 17.0988 8.72378 16.3924L8.78198 16.3031L8.80346 16.2677C8.81294 16.2462 8.82203 16.2255 8.8307 16.2032C8.85877 16.11 8.88641 16.0199 8.91325 15.9339C9.03429 15.036 9.24805 14.1538 9.551 13.3019L9.59228 13.1872L9.63646 13.0722C9.65048 13.0355 9.6637 12.9959 9.70249 12.877C9.92168 12.2027 10.3778 10.8026 11.5712 9.30053L12.0042 8.76529L12.4438 8.35942C13.6224 7.26603 15.0264 6.45687 16.5522 5.99167C17.4185 5.7291 18.3114 5.56887 19.2135 5.51415L19.296 5.50741L19.4199 5.50151C19.5705 5.49435 19.7208 5.49097 19.8673 5.49097C20.5144 5.4898 21.1599 5.29961 21.7938 5.4325C22.283 5.5358 22.7915 5.48055 23.2484 5.27445C24.1021 4.89008 25.2512 4.73656 26.5668 4.56925C26.6605 4.55534 26.7422 4.5448 26.8058 4.53679C26.9788 4.51445 27.2553 4.48116 27.5901 4.4487C28.1721 4.39181 29.0679 4.32227 30.0309 4.32227C31.8542 4.32227 33.4074 4.55786 34.7799 5.04254L34.8897 5.08131L34.997 5.12346C38.0264 6.29216 39.5238 7.85662 40.6902 9.37344C40.7551 9.45775 40.8214 9.54413 40.8463 9.57407L40.8739 9.59934L41.0951 9.80038L41.125 9.83158C42.1326 10.6198 42.9879 11.5926 43.6471 12.7004L43.841 13.0271L44.0061 13.3693C45.4442 16.3663 44.9934 19.0927 44.8012 20.2572L44.7909 20.3192C44.6544 21.1651 44.431 21.9941 44.1245 22.7923C44.028 23.5691 43.8549 24.334 43.6079 25.0753C43.2154 26.3027 42.6364 27.4594 41.8919 28.503C41.3878 29.2346 40.8051 29.9061 40.1545 30.505C39.8525 30.7817 39.662 31.163 39.6198 31.575C39.5884 31.8785 39.5459 32.1735 39.4924 32.4629C39.0602 34.832 38.05 36.4707 37.5877 37.2044L36.4386 38.91C34.9113 40.9138 33.1016 42.224 30.9092 42.9139L30.4139 43.0725L29.8773 43.1671C29.2368 43.2826 28.5876 43.3401 27.9373 43.3388C27.8427 43.3388 27.7461 43.3388 27.6421 43.3362H27.6128H27.5513C27.5513 43.3362 27.5307 43.3362 27.4885 43.3393L27.375 43.3465L27.2607 43.3506L27.0324 43.3596C26.7307 43.3703 26.4318 43.4234 26.1441 43.5171C24.6845 43.993 22.9979 44.2175 20.9125 44.2175V44.2175Z" stroke="url(#paint1_linear_0_81)" stroke-width="1.01688" stroke-miterlimit="10"/>
<path opacity="0.8" d="M20.9141 42.5318C19.6757 42.5318 18.4712 42.4497 17.4574 42.3691L17.2597 42.3534L17.0624 42.3257C16.8836 42.3003 16.6826 42.278 16.4882 42.2562C15.5268 42.1495 14.075 41.9881 12.447 41.2084L12.2262 41.1027L12.0198 40.985C8.89252 39.1952 7.74416 36.5547 6.98381 34.8073C6.91901 34.6577 6.84553 34.4891 6.77742 34.3329C6.44719 33.6471 6.22677 32.9929 6.03895 32.3874L6.00592 32.2812L5.97703 32.177C5.51512 30.5013 5.39294 29.0924 5.5919 27.7441C5.79376 26.3769 6.31964 25.1024 7.24593 23.7327L7.35614 23.57L7.47544 23.4136C7.55057 23.3158 7.6228 23.2193 7.6938 23.1249L8.1586 22.2546C8.31103 21.9702 8.41396 21.6608 8.46281 21.3405C8.75836 19.3879 9.6797 17.9772 10.1049 17.3265L10.107 17.3231C10.1313 17.286 10.1627 17.2388 10.1788 17.2127L10.2696 17.0648C10.3051 16.9855 10.3521 16.8802 10.3934 16.7697C10.4347 16.6378 10.4838 16.4747 10.5375 16.3061C10.6382 15.4743 10.8313 14.6569 11.1129 13.8697L11.1451 13.7778L11.1802 13.6851C11.2099 13.608 11.2318 13.541 11.2747 13.409C11.4782 12.7849 11.8555 11.6263 12.859 10.3623L13.2061 9.93368L13.5566 9.61044C14.5542 8.68483 15.7427 7.99983 17.0343 7.60598C17.784 7.37881 18.5569 7.24106 19.3376 7.19548L19.4037 7.19042L19.504 7.18579C19.6278 7.17989 19.7516 7.17694 19.8755 7.17694C20.5468 7.176 21.2154 7.26282 21.8651 7.43529C22.4276 7.58057 23.0223 7.51647 23.5427 7.25448C24.3752 6.84188 25.4889 6.40398 26.7938 6.24045C26.8833 6.22739 26.9589 6.21728 27.0204 6.20927C27.1826 6.18862 27.441 6.15743 27.7547 6.12498C28.3008 6.07145 29.1404 6.00781 30.0387 6.00781C31.6754 6.00781 33.0519 6.21306 34.249 6.63536L34.337 6.66655L34.4229 6.69942C37.2053 7.7733 38.4512 9.17971 39.4003 10.4133C39.6096 10.6851 39.6412 10.7273 39.785 10.8575L39.9621 11.0185L40.031 11.0906C40.4888 11.4526 41.4248 12.1982 42.2442 13.5772L42.3998 13.8385L42.5312 14.112C43.7356 16.6218 43.3609 18.8884 43.181 19.9779L43.171 20.0382C43.0421 20.837 42.8242 21.6181 42.5212 22.3663L42.5131 22.435C42.433 23.1507 42.2782 23.8556 42.051 24.5377C41.7103 25.6057 41.2067 26.6121 40.5589 27.5199C40.0169 28.3131 39.3653 29.0222 38.6246 29.6251C38.4484 29.7677 38.3039 29.9473 38.2014 30.1516C38.0986 30.356 38.0401 30.5804 38.0293 30.8098C38.0092 31.2601 37.9584 31.7085 37.8775 32.1516C37.5033 34.2059 36.6251 35.63 36.1768 36.341L35.2861 37.6851C33.9432 39.5154 32.3516 40.7002 30.4279 41.3023L30.0321 41.4288L29.604 41.5047C29.0566 41.6035 28.5017 41.6525 27.9459 41.6515C27.8596 41.6515 27.7716 41.6515 27.6767 41.6489H27.6548H27.5599C27.5438 41.6489 27.4947 41.6489 27.3948 41.6551L27.304 41.661L27.216 41.6643L26.757 41.6818C26.4355 41.6931 26.1173 41.7516 25.8122 41.8557C24.4752 42.3155 22.8979 42.5318 20.9141 42.5318V42.5318Z" stroke="url(#paint2_linear_0_81)" stroke-width="0.953329" stroke-miterlimit="10"/>
<path opacity="0.8" d="M20.9147 40.8462C19.7312 40.8462 18.5676 40.7664 17.586 40.6887L17.4378 40.6769L17.2896 40.6561C17.0869 40.6274 16.8735 40.6035 16.6667 40.5807C15.7631 40.4799 14.5277 40.3431 13.1486 39.6825L12.9834 39.6029L12.8295 39.5149C10.181 37.9976 9.20688 35.7592 8.49523 34.1236C8.42136 33.955 8.34457 33.7775 8.2686 33.6076C7.96604 32.9865 7.77327 32.39 7.61311 31.8797L7.58835 31.7999L7.56688 31.7222C6.7925 28.9122 7.08351 26.941 8.60504 24.6921L8.68759 24.5699L8.77717 24.4527C8.87828 24.3208 8.97281 24.194 9.06612 24.0734C9.20645 23.8855 9.34845 23.6941 9.50327 23.4973C9.59931 23.3747 9.67683 23.238 9.73316 23.0918L9.90778 22.6367C9.98178 22.4431 10.0282 22.2397 10.0457 22.0327C10.1971 20.2302 11.0557 18.9161 11.4809 18.2649L11.4834 18.2615C11.5143 18.2135 11.5614 18.1418 11.5771 18.1161L11.6766 17.9539L11.7071 17.9117C11.76 17.8026 11.8636 17.572 11.9548 17.3305C12.0039 17.1653 12.0815 16.9116 12.1575 16.6811C12.1575 16.6722 12.1575 16.6625 12.1607 16.6524C12.2421 15.8971 12.4126 15.1546 12.6685 14.441L12.6928 14.3719L12.7192 14.3023C12.7655 14.1822 12.7981 14.0819 12.8431 13.9433C13.0247 13.3861 13.3285 12.4534 14.1425 11.4284L14.403 11.1064L14.6643 10.8654C16.587 9.08427 18.7385 8.93044 19.4576 8.88113L19.5071 8.87733L19.583 8.87354C19.6809 8.86889 19.7787 8.86679 19.8745 8.86679C20.7282 8.86987 21.5727 9.04623 22.359 9.3856C22.4983 9.44469 22.6487 9.47155 22.7994 9.46426C22.95 9.45698 23.0972 9.41572 23.2304 9.34345H23.2345C23.9656 8.91063 25.3046 8.12587 27.0119 7.91598C27.0945 7.90334 27.1704 7.89365 27.2261 7.88648C27.3764 7.8671 27.6162 7.83844 27.911 7.80936C28.4212 7.75962 29.2046 7.7002 30.0376 7.7002C31.4878 7.7002 32.6882 7.87553 33.7076 8.23545L33.7737 8.25863L33.838 8.2835C36.2227 9.20355 37.2512 10.3579 38.0997 11.4613C38.3279 11.7563 38.4299 11.8933 38.6855 12.1234L38.8184 12.2444L38.9249 12.3561L39.0074 12.4226C39.4117 12.7421 40.1633 13.3368 40.8304 14.457L40.9472 14.653L41.0457 14.8583C42.0159 16.8813 41.7124 18.7159 41.5493 19.7021L41.5398 19.7606C41.4249 20.4776 41.2252 21.1776 40.9447 21.8452L40.9211 21.9025C40.9186 21.9147 40.9153 21.9328 40.9103 21.9594C40.8975 22.0273 40.8902 22.0812 40.8814 22.1499L40.8716 22.2274C40.8055 22.8321 40.6751 23.4276 40.4831 24.0035C40.1942 24.9119 39.7665 25.7679 39.2154 26.5398C38.6707 27.3296 38.0598 27.9728 37.374 28.4819C37.073 28.7064 36.8273 28.9992 36.6561 29.3373C36.4848 29.6753 36.3931 30.0493 36.3875 30.4299C36.3817 30.9044 36.3363 31.3776 36.2516 31.8443C35.9355 33.5846 35.2083 34.7629 34.7555 35.481L34.1082 36.4719C32.949 38.1254 31.5816 39.1811 29.9357 39.6955L29.8486 39.7235C29.7089 39.7682 29.5665 39.8036 29.4222 39.8287L29.3177 39.8474C28.8637 39.9295 28.4034 39.9703 27.9423 39.969C27.8643 39.969 27.7851 39.969 27.6992 39.967H27.6852C27.646 39.967 27.6026 39.967 27.5564 39.967C27.5242 39.967 27.4392 39.967 27.2856 39.9767L27.2175 39.9808L27.151 39.9834C26.9302 39.9919 26.6557 40.0016 26.4109 40.0127C26.0754 40.0268 25.744 40.0932 25.4281 40.2094C24.2434 40.6415 22.7937 40.8462 20.9147 40.8462V40.8462Z" stroke="url(#paint3_linear_0_81)" stroke-width="0.889774" stroke-miterlimit="10"/>
<g opacity="0.8">
<path opacity="0.8" d="M20.9141 39.1606C19.7868 39.1606 18.6636 39.0834 17.7133 39.008L17.6143 39.0003L17.5156 38.9862C17.2882 38.9541 17.0616 38.9287 16.8432 38.9046C16.0127 38.8125 14.9791 38.6973 13.8489 38.1562L13.7383 38.1031L13.6359 38.0446C11.4663 36.8026 10.6556 34.9379 10.0034 33.4396C9.9233 33.2551 9.83827 33.0645 9.7557 32.879C9.50019 32.3587 9.32721 31.8256 9.18522 31.369L9.16871 31.3163L9.15426 31.2645C8.51528 28.9465 8.7262 27.4752 9.96167 25.649L10.0166 25.5676L10.0764 25.4897C10.1842 25.3489 10.2828 25.2174 10.3769 25.0905C10.6993 24.659 11.0093 24.2434 11.4729 23.7381C11.5745 23.6272 11.6354 23.4838 11.645 23.3322L11.6801 22.7869L11.6665 22.6082L11.6727 22.4227C11.721 20.927 12.457 19.8017 12.8508 19.1973C12.8962 19.1273 12.9436 19.0553 12.9717 19.0093L13.0382 18.9014L13.0997 18.8171C13.1732 18.6945 13.3663 18.2764 13.5125 17.8752C13.5628 17.7066 13.6602 17.385 13.7461 17.13C13.7713 17.0487 13.7737 17.0289 13.7944 16.8544C13.8615 16.2232 14.0039 15.6027 14.2183 15.0067L14.2344 14.9604L14.2521 14.9136C14.3133 14.7543 14.3558 14.6241 14.4049 14.4732C14.5605 13.9952 14.795 13.275 15.4199 12.4881L15.5941 12.2731L15.7667 12.1138C17.1136 10.8651 18.581 10.6286 19.5713 10.5608L19.6047 10.5578H19.6559C19.7278 10.5544 19.7992 10.5528 19.8693 10.5528C20.7151 10.5528 21.7269 10.967 22.2581 11.2174C22.3852 11.2769 22.5225 11.3102 22.6622 11.3154C22.8019 11.3205 22.9412 11.2974 23.0721 11.2473C23.4027 11.1251 23.7248 10.9803 24.0364 10.8141C24.7121 10.4137 25.8332 9.75242 27.2256 9.58678C27.3023 9.57498 27.3713 9.56613 27.4282 9.55854C27.5682 9.54083 27.789 9.51638 28.0627 9.48731C28.5374 9.44095 29.2643 9.38574 30.0325 9.38574C31.2955 9.38574 32.3197 9.53072 33.163 9.82828L33.2068 9.84386L33.2482 9.8603C35.2399 10.6286 36.0324 11.5116 36.7948 12.5024C37.0423 12.8219 37.2174 13.0503 37.581 13.3824L37.6695 13.4629L37.7519 13.5472C37.8263 13.6223 37.9062 13.6912 37.9909 13.7533C38.3329 14.0235 38.9058 14.4761 39.4139 15.3304L39.4915 15.4611L39.5576 15.598C40.2938 17.1326 40.0574 18.5638 39.9159 19.419L39.9064 19.4771C39.8124 20.0675 39.6476 20.6437 39.4156 21.1929V21.1971C39.3513 21.3391 39.3071 21.4897 39.284 21.6443C39.2641 21.7522 39.2515 21.839 39.2397 21.9351L39.2297 22.0135C39.1767 22.5068 39.0711 22.9926 38.9148 23.4625C38.6791 24.2121 38.3266 24.9179 37.8708 25.5529C37.1981 26.5328 36.4204 27.2223 35.4833 27.6602C35.2557 27.7663 35.0612 27.9345 34.9215 28.1463C34.7815 28.3581 34.7016 28.6053 34.6908 28.8605C34.6863 28.965 34.6845 29.051 34.6875 29.099C34.7338 29.8362 34.786 30.6715 34.6252 31.5321C34.3672 32.9555 33.7769 33.9122 33.3331 34.6146C33.3331 34.6146 31.2973 37.5076 29.4447 38.0849L29.2453 38.1485L29.0311 38.187C28.6706 38.2524 28.305 38.2847 27.9389 38.2834C27.8695 38.2834 27.7985 38.2834 27.7221 38.2814H27.7155C27.6664 38.2814 27.6132 38.2814 27.5529 38.2814C27.4803 38.2814 27.3618 38.2814 27.1777 38.2945L27.1327 38.2973H27.0881C26.3794 38.3235 25.7094 38.3478 25.5232 38.385C25.4236 38.4009 25.3264 38.4299 25.2343 38.4717C24.1858 38.941 22.8108 39.1606 20.9141 39.1606V39.1606Z" stroke="url(#paint4_linear_0_81)" stroke-width="0.826219" stroke-miterlimit="10"/>
<path opacity="0.8" d="M20.9156 37.4751C19.8449 37.4751 18.7613 37.4007 17.8425 37.3276L17.7933 37.324L17.7442 37.3168C17.4928 37.2814 17.2543 37.2547 17.0231 37.2291C16.2413 37.1424 15.4326 37.0526 14.5513 36.6305L14.496 36.6036L14.4448 36.5746C12.7524 35.6053 12.1238 34.1576 11.5141 32.7557C11.4274 32.5569 11.3378 32.3511 11.2454 32.1466C11.039 31.7302 10.8928 31.2836 10.7616 30.8605L10.7533 30.8343L10.7459 30.8078C10.2377 28.9626 10.3669 28.0207 11.3238 26.6075L11.3514 26.5654L11.3811 26.5262C11.4934 26.3799 11.5954 26.2434 11.6936 26.1115C12.1535 25.4957 12.551 24.9634 13.4418 24.1239L13.4443 24.1213C13.5096 24.0576 13.5554 23.976 13.5763 23.8862C13.5972 23.7965 13.5922 23.7025 13.5619 23.6156L13.4013 23.1482C13.369 23.0008 13.3464 22.8514 13.3336 22.701V22.696L13.3237 22.5695L13.327 22.4768C13.3596 21.4615 13.8826 20.6612 14.2285 20.1314C14.2826 20.0471 14.3342 19.97 14.3743 19.9042L14.4073 19.8503L14.4444 19.7993C14.6281 19.5464 14.9265 18.8464 15.0834 18.4127C15.1247 18.2791 15.2304 17.9204 15.3183 17.6604C15.3809 17.4648 15.4215 17.2626 15.4392 17.0577C15.4911 16.5502 15.6051 16.0514 15.7785 15.5729L15.7868 15.5493L15.7959 15.5261C15.8722 15.3259 15.9259 15.1615 15.9779 15.0022C16.1162 14.5778 16.2727 14.0965 16.7081 13.5482L16.7956 13.4403L16.8811 13.3615C17.8379 12.4739 18.8868 12.2952 19.6959 12.2404H19.7128H19.7392C19.7846 12.2404 19.83 12.2375 19.875 12.2375C20.6622 12.2375 21.2673 12.5671 21.6677 12.7854L21.761 12.836L21.7751 12.8435C21.8849 12.9042 21.9815 12.9573 22.071 13.0024C22.3198 13.1298 22.6057 13.1598 22.8747 13.0867C23.4229 12.9362 24.2782 12.605 24.8536 12.2821L24.8656 12.275C25.4707 11.9168 26.3822 11.3773 27.4505 11.2576C27.5177 11.2466 27.5821 11.2386 27.6428 11.2306C27.7666 11.2146 27.973 11.1885 28.2252 11.1653C28.6644 11.1231 29.3352 11.0713 30.0382 11.0713C31.1147 11.0713 31.9623 11.1859 32.6291 11.4211L32.651 11.4291L32.6734 11.4376C34.2713 12.0541 34.8542 12.6994 35.5035 13.5448C35.7676 13.8883 36.0174 14.2129 36.4908 14.6432L36.535 14.6853L36.5762 14.7274C36.7044 14.8593 36.8424 14.9806 36.9891 15.0903C37.273 15.315 37.6623 15.6226 38.0121 16.2101L38.0508 16.2755L38.0837 16.3442C38.5862 17.3915 38.4189 18.4038 38.2968 19.1427L38.2872 19.2008C38.2141 19.6669 38.0834 20.1216 37.898 20.5541C37.7899 20.8031 37.713 21.0651 37.6693 21.3338C37.6404 21.4897 37.6236 21.6116 37.6095 21.7245L37.5995 21.8046C37.5598 22.1865 37.4788 22.5628 37.358 22.9265C37.1748 23.5166 36.8979 24.0719 36.5383 24.5702C35.9315 25.4595 35.2588 26.0078 34.365 26.2982C33.9368 26.4364 33.5682 26.7214 33.3219 27.1048L33.2508 27.2161L33.1724 27.3076C32.9455 27.5714 33.0093 28.5939 33.0485 29.2041C33.09 29.8738 33.134 30.5663 33.0116 31.2183C32.8101 32.3329 32.3424 33.0854 31.9238 33.7471C31.9238 33.7471 30.3692 36.0369 28.9666 36.4717L28.8647 36.5046L28.7573 36.5236C28.4902 36.5723 28.2192 36.5964 27.9479 36.5951C27.8867 36.5951 27.824 36.5951 27.7575 36.5951C27.6985 36.5951 27.6337 36.5951 27.5619 36.5951C27.4665 36.5951 27.3142 36.5951 27.0823 36.6115H27.0599H27.0376C26.0969 36.6467 25.5293 36.6672 25.2156 36.7296C25.0045 36.7678 24.7983 36.8307 24.6014 36.9171C23.7614 37.2973 22.5882 37.4751 20.9156 37.4751V37.4751Z" stroke="url(#paint5_linear_0_81)" stroke-width="0.826219" stroke-miterlimit="10"/>
</g>
</g>
<path d="M47.4258 35.9889H50.9213L52.0531 30.9924H60.2091L61.3409 35.9889H64.9362L59.3769 12.5361H52.9851L47.4258 35.9889ZM52.7522 27.9334L55.5818 15.5612H56.6804L59.5101 27.9334H52.7522Z" fill="black"/>
<path d="M67.0918 42.4466H70.1212V36.4305V34.3572C71.8151 35.1025 73.3107 36.3286 75.2147 36.3286C79.4425 36.3286 82.0392 33.1334 82.0392 27.1174C82.0392 21.1013 79.4424 17.9062 75.1481 17.9062C73.1672 17.9062 71.7106 19.1895 70.0215 20.0816V18.2461H67.0918V42.4466ZM70.3544 29.4627V24.7721C70.3544 22.2909 71.7525 20.9653 74.1827 20.9653C77.1787 20.9653 78.5436 22.9367 78.5436 27.1174C78.5436 31.2981 77.1787 33.2694 74.1827 33.2694C71.7525 33.2694 70.3544 31.944 70.3544 29.4627Z" fill="black"/>
<path d="M91.8076 36.3286C95.9356 36.3286 98.6656 34.1533 99.0317 30.7883H95.9025C95.5695 32.6578 93.9716 33.4734 91.9076 33.4734C88.8448 33.4734 87.4135 31.6721 87.2803 27.6272H99.0983C99.7307 20.9313 97.0008 17.9062 91.9076 17.9062C86.7476 17.9062 83.8848 21.1013 83.8848 27.1174C83.8848 33.1334 86.7144 36.3286 91.8076 36.3286ZM87.3801 25.112C87.7796 22.1549 89.2111 20.6934 91.841 20.6934C94.6041 20.6934 95.9356 22.2569 95.9356 25.112H87.3801Z" fill="black"/>
<path d="M110.157 36.5327C115.417 36.5327 118.08 33.4735 118.413 27.7633H114.984C114.751 31.5021 113.22 33.2695 110.157 33.2695C106.562 33.2695 105.097 30.7204 105.097 24.2624C105.097 17.9403 106.628 15.2552 110.157 15.2552C113.153 15.2552 114.685 17.1246 114.918 20.7275H118.313C117.947 15.0512 115.417 11.9922 110.157 11.9922C104.265 11.9922 101.568 15.833 101.568 24.2624C101.568 32.6917 104.265 36.5327 110.157 36.5327Z" fill="black"/>
<path d="M128.124 36.3286C133.184 36.3286 135.98 33.1334 135.98 27.1174C135.98 21.1013 133.184 17.9062 128.124 17.9062C123.064 17.9062 120.268 21.1013 120.268 27.1174C120.268 33.1334 123.064 36.3286 128.124 36.3286ZM123.763 27.1174C123.763 22.8347 125.128 20.8973 128.124 20.8973C131.12 20.8973 132.485 22.8347 132.485 27.1174C132.485 31.4001 131.12 33.3374 128.124 33.3374C125.128 33.3374 123.763 31.4001 123.763 27.1174Z" fill="black"/>
<path d="M139.542 35.9896H142.804V33.0664V18.2471H136.943V21.1702H139.542V33.0664V35.9896Z" fill="black"/>
<path d="M145.562 35.9887H148.825V24.8061C148.825 22.3589 150.223 21.0333 152.853 21.0333C155.383 21.0333 156.548 22.2229 156.548 24.8061V35.9887H159.811V23.9224C159.811 19.9456 157.946 17.9062 154.085 17.9062C151.882 17.9062 150.36 19.0951 148.492 20.0816V18.2461H145.562V35.9887Z" fill="black"/>
<path d="M138.893 12.1279H142.411V15.4632H138.893V12.1279Z" fill="black"/>
<defs>
<linearGradient id="paint0_linear_0_81" x1="2.19726" y1="2.37988" x2="45.4478" y2="46.8394" gradientUnits="userSpaceOnUse">
<stop offset="0.205697" stop-color="#89D0FF"/>
<stop offset="0.398413" stop-color="#EBBF9A"/>
<stop offset="0.601546" stop-color="#EB8280"/>
<stop offset="0.841139" stop-color="#A281FF"/>
</linearGradient>
<linearGradient id="paint1_linear_0_81" x1="3.84375" y1="4.32227" x2="43.7191" y2="45.4801" gradientUnits="userSpaceOnUse">
<stop offset="0.205697" stop-color="#89D0FF"/>
<stop offset="0.398413" stop-color="#EBBF9A"/>
<stop offset="0.601546" stop-color="#EB80DA"/>
<stop offset="0.841139" stop-color="#A281FF"/>
</linearGradient>
<linearGradient id="paint2_linear_0_81" x1="5.5" y1="6.00781" x2="41.9997" y2="43.8631" gradientUnits="userSpaceOnUse">
<stop offset="0.205697" stop-color="#89D0FF"/>
<stop offset="0.398413" stop-color="#EBBF9A"/>
<stop offset="0.601546" stop-color="#EB8280"/>
<stop offset="0.841139" stop-color="#A281FF"/>
</linearGradient>
<linearGradient id="paint3_linear_0_81" x1="7.15234" y1="7.7002" x2="40.2688" y2="42.2432" gradientUnits="userSpaceOnUse">
<stop offset="0.205697" stop-color="#89D0FF"/>
<stop offset="0.398413" stop-color="#EBBF9A"/>
<stop offset="0.601546" stop-color="#EB80E7"/>
<stop offset="0.841139" stop-color="#A281FF"/>
</linearGradient>
<linearGradient id="paint4_linear_0_81" x1="8.80274" y1="9.38574" x2="38.542" y2="40.6133" gradientUnits="userSpaceOnUse">
<stop offset="0.205697" stop-color="#89D0FF"/>
<stop offset="0.398413" stop-color="#EBBF9A"/>
<stop offset="0.601546" stop-color="#EB80D3"/>
<stop offset="0.841139" stop-color="#A281FF"/>
</linearGradient>
<linearGradient id="paint5_linear_0_81" x1="10.4531" y1="11.0713" x2="36.8132" y2="38.9965" gradientUnits="userSpaceOnUse">
<stop offset="0.205697" stop-color="#89D0FF"/>
<stop offset="0.398413" stop-color="#EBBF9A"/>
<stop offset="0.601546" stop-color="#A280EB"/>
<stop offset="0.841139" stop-color="#A281FF"/>
</linearGradient>
</defs>
</svg>
